<?xml version="1.0" standalone="no"?>
<!DOCTYPE svg PUBLIC "-//W3C//DTD SVG 20010904//EN"
 "http://www.w3.org/TR/2001/REC-SVG-20010904/DTD/svg10.dtd">
<svg version="1.0" xmlns="http://www.w3.org/2000/svg"
 width="2048.000000pt" height="2048.000000pt" viewBox="0 0 2048.000000 2048.000000"
 preserveAspectRatio="xMidYMid meet">
<metadata>
Created by potrace 1.16, written by Peter Selinger 2001-2019
</metadata>
<g transform="translate(0.000000,2048.000000) scale(0.100000,-0.100000)"
fill="#fe0054" stroke="none">
<path d="M9645 20469 c-2751 -163 -5289 -1403 -7110 -3476 -757 -862 -1377
-1869 -1799 -2923 -117 -291 -127 -320 -114 -320 7 0 164 43 350 96 187 53
341 95 343 92 2 -2 126 -433 276 -958 149 -525 274 -958 278 -962 3 -4 136
498 295 1115 159 617 292 1126 296 1130 7 8 1511 440 1515 435 1 -2 -170 -619
-380 -1373 l-382 -1370 21 -25 c11 -14 41 -42 66 -64 25 -21 104 -94 175 -161
72 -67 456 -425 855 -795 399 -371 750 -697 780 -725 30 -29 87 -82 125 -117
39 -36 96 -89 128 -119 l57 -54 -759 -216 -759 -215 -713 689 c-996 961 -1079
1040 -1083 1036 -3 -2 126 -461 285 -1019 159 -558 290 -1023 292 -1034 2 -16
-80 -42 -678 -212 -374 -106 -682 -190 -686 -186 -3 4 -243 844 -534 1867
-290 1023 -531 1864 -536 1868 -18 21 -122 -539 -168 -908 -65 -506 -76 -708
-76 -1330 0 -560 4 -651 46 -1065 57 -559 168 -1147 323 -1704 14 -49 23 -93
20 -98 -3 -4 -1 -8 5 -8 5 0 13 -15 16 -33 15 -66 150 -469 227 -677 187 -503
439 -1037 709 -1508 48 -83 84 -152 81 -152 -4 0 -2 -4 4 -8 6 -4 53 -74 105
-157 163 -258 214 -335 223 -335 4 0 6 8 4 17 -3 10 -180 631 -393 1380 -214
750 -386 1365 -383 1369 5 4 1935 556 3650 1043 l66 19 266 -936 c147 -514
268 -944 269 -956 1 -12 5 -23 8 -26 7 -6 770 -2689 772 -2716 1 -10 4 -21 7
-24 6 -5 31 -83 27 -85 -1 -1 -303 -87 -672 -192 -581 -165 -671 -188 -677
-174 -4 9 -224 779 -489 1711 -265 932 -484 1698 -488 1701 -11 11 -1021 -282
-1021 -297 0 -7 216 -773 481 -1701 264 -928 481 -1696 482 -1707 2 -16 -28
-27 -213 -80 -118 -34 -215 -66 -215 -72 0 -33 532 -484 865 -734 69 -51 127
-96 130 -99 3 -3 13 -10 22 -16 10 -5 79 -53 155 -106 183 -126 392 -261 590
-379 89 -54 159 -101 155 -105 -4 -5 -2 -5 4 -2 6 4 65 -23 130 -59 180 -100
588 -302 784 -389 834 -369 1695 -622 2585 -759 198 -31 539 -75 585 -77 8 0
105 -8 215 -17 285 -24 1263 -24 1550 0 110 9 207 17 215 17 8 0 29 3 45 6 17
2 109 14 205 25 1210 143 2419 518 3509 1090 74 38 141 70 150 70 9 0 1212
-278 2673 -617 1462 -339 2661 -614 2665 -610 3 4 -336 1098 -754 2433 l-761
2426 76 126 c426 715 770 1493 1007 2276 36 119 65 218 65 220 0 2 -30 7 -67
10 -214 22 -397 112 -534 265 -128 141 -196 312 -206 512 -12 239 63 428 242
606 80 80 105 97 196 141 149 72 216 87 379 86 120 0 144 -3 214 -27 43 -15
80 -26 81 -25 4 4 33 299 47 483 9 104 13 357 13 720 0 586 -6 705 -56 1150
-118 1070 -436 2199 -890 3165 l-54 115 -5 -240 c-3 -132 -2 -280 1 -330 4
-49 10 -353 14 -675 l7 -585 -504 -142 c-277 -79 -508 -143 -514 -143 -7 0
-456 2322 -454 2351 0 4 259 80 575 170 316 90 575 167 575 171 0 19 -281 475
-419 681 -393 586 -795 1072 -1312 1583 -252 249 -333 324 -573 527 -494 420
-1009 780 -1581 1107 -231 132 -754 390 -1015 502 -1104 471 -2253 739 -3469
808 -212 12 -949 11 -1156 -1z m6008 -2548 c190 -38 407 -122 552 -214 319
-201 532 -514 626 -922 26 -117 37 -355 19 -463 -27 -170 -108 -359 -215 -500
-30 -40 -55 -75 -55 -78 0 -2 10 -4 21 -4 34 0 221 -66 301 -106 304 -153 516
-410 633 -767 166 -510 67 -998 -283 -1403 -314 -362 -913 -639 -1587 -736
-148 -21 -505 -16 -645 10 -305 56 -561 169 -790 351 -77 61 -271 255 -289
290 -7 13 91 120 471 518 l481 501 78 -79 c44 -43 81 -79 84 -79 3 0 30 -17
62 -36 127 -82 279 -120 433 -111 193 12 407 90 503 182 69 66 91 121 91 220
-1 106 -30 182 -94 245 -63 64 -126 85 -245 83 -81 -1 -128 -12 -467 -105
l-376 -104 -162 569 c-89 314 -164 575 -166 582 -3 8 87 39 273 95 337 100
367 111 442 161 108 72 153 176 131 301 -33 181 -143 278 -317 278 -202 0
-446 -107 -554 -243 -69 -86 -139 -255 -139 -337 0 -14 -4 -30 -8 -37 -12 -19
-1316 317 -1320 340 -2 9 4 54 13 99 158 781 886 1372 1865 1513 147 22 494
14 633 -14z m-2974 -1363 c89 -315 163 -582 164 -593 1 -11 5 -22 8 -25 7 -6
768 -2680 771 -2712 2 -13 6 -25 9 -28 10 -10 257 -885 250 -891 -11 -11
-1354 -390 -1360 -384 -3 4 -146 497 -317 1096 -170 600 -314 1090 -320 1089
-5 -1 -208 -591 -451 -1311 -242 -721 -443 -1313 -446 -1315 -6 -6 -1090 -314
-1093 -311 -5 4 -1374 4820 -1372 4822 17 12 1362 385 1367 379 5 -5 146 -497
316 -1094 169 -597 310 -1089 313 -1094 2 -5 8 -2 12 5 4 8 205 599 445 1314
241 715 441 1304 446 1309 7 8 1056 312 1085 315 6 1 83 -257 173 -571z
m-5451 -1109 c109 -13 250 -49 345 -89 73 -30 222 -114 256 -144 79 -69 209
-201 205 -208 -3 -4 0 -8 6 -8 13 0 106 -142 149 -227 179 -356 222 -757 114
-1056 -36 -101 -86 -199 -149 -290 -30 -43 -54 -80 -54 -83 0 -2 9 -4 19 -4
34 0 202 -60 286 -102 146 -73 279 -177 371 -289 30 -36 54 -69 54 -73 0 -4 9
-17 21 -29 37 -39 137 -258 173 -377 55 -184 70 -292 70 -485 0 -148 -4 -185
-27 -283 -109 -465 -459 -820 -1034 -1046 -98 -39 -470 -149 -1229 -366 -598
-170 -1089 -309 -1090 -307 -4 4 -1374 4820 -1371 4822 9 7 2004 570 2087 589
289 67 547 85 798 55z m12690 -3542 l193 -682 110 -825 c60 -453 108 -831 107
-839 -2 -11 -151 -58 -533 -167 -292 -83 -533 -149 -537 -145 -4 3 -163 353
-353 776 l-346 770 -193 678 -193 677 56 17 c214 62 1478 422 1486 422 6 1 97
-306 203 -682z m-3228 -197 c227 -20 419 -71 605 -160 151 -73 248 -142 371
-264 199 -197 317 -420 386 -728 19 -87 23 -131 23 -278 -1 -159 -3 -184 -28
-274 -41 -150 -122 -308 -214 -419 -27 -34 -29 -47 -7 -47 35 0 230 -72 317
-117 164 -85 306 -207 410 -355 53 -76 101 -158 92 -158 -3 0 0 -7 9 -15 8 -8
32 -61 54 -117 172 -450 146 -869 -77 -1243 -221 -371 -581 -632 -1114 -809
-581 -193 -1072 -215 -1518 -66 -248 82 -448 208 -645 404 -72 72 -136 140
-141 151 -10 18 39 73 460 513 l472 493 58 -60 c65 -67 193 -156 274 -189 164
-69 375 -68 582 3 272 92 373 257 291 476 -26 72 -71 124 -134 157 -48 25 -59
27 -171 26 l-120 -1 -356 -100 -356 -99 -162 569 c-89 314 -160 571 -158 573
1 2 133 42 292 90 160 47 319 101 355 119 75 38 131 89 162 148 32 59 31 177
-2 262 -30 80 -106 155 -175 176 -117 33 -308 3 -465 -74 -102 -50 -208 -150
-257 -242 -35 -67 -73 -192 -73 -243 0 -18 -6 -35 -13 -38 -12 -4 -1282 318
-1293 329 -11 10 28 184 67 302 129 387 417 726 821 967 125 74 248 132 395
187 124 45 342 106 350 97 4 -3 11 -2 17 3 15 12 201 42 316 51 143 11 175 11
300 0z m-2826 -1000 c31 -106 53 -197 51 -201 -3 -4 -1 -9 3 -11 7 -3 261
-888 1073 -3743 92 -324 167 -590 166 -590 -1 -1 -303 -87 -672 -192 -446
-127 -672 -187 -676 -179 -3 6 -142 494 -310 1083 -167 590 -307 1073 -310
1073 -4 0 -77 -208 -162 -462 -86 -255 -282 -839 -437 -1298 l-281 -835 -536
-153 c-294 -84 -538 -150 -541 -148 -13 13 -1349 4732 -1341 4737 18 11 1331
381 1335 376 3 -2 142 -488 310 -1078 168 -591 309 -1077 312 -1081 4 -4 202
575 441 1285 239 711 438 1297 443 1302 8 9 1070 316 1075 311 2 -1 27 -89 57
-196z m-3998 -3490 c370 -1300 672 -2366 670 -2368 -6 -6 -1338 -383 -1342
-380 -1 2 -222 773 -489 1713 -268 941 -489 1712 -491 1714 -4 4 -758 -209
-774 -219 -4 -3 106 -406 245 -897 140 -490 265 -945 279 -1011 46 -216 62
-396 58 -642 -2 -95 -38 -289 -72 -393 -77 -229 -199 -402 -404 -574 -245
-206 -531 -343 -909 -438 -79 -20 -163 -37 -187 -38 l-43 -2 -177 620 -176
619 108 27 c196 50 309 120 365 226 61 116 67 262 19 473 -13 58 -204 737
-424 1510 -220 773 -402 1414 -404 1425 -3 17 146 62 1722 511 949 271 1731
492 1739 491 10 -1 220 -725 687 -2367z"/>
<path d="M6555 14160 c-59 -12 -497 -139 -503 -145 -6 -6 178 -655 186 -655
28 0 558 167 591 187 113 66 164 149 164 263 1 162 -81 291 -215 337 -53 18
-169 25 -223 13z"/>
<path d="M6877 12340 c-175 -48 -320 -90 -322 -92 -6 -5 185 -681 195 -691 11
-13 638 170 695 203 153 88 226 257 180 415 -23 81 -46 123 -92 169 -61 62
-111 80 -233 82 -105 3 -106 3 -423 -86z"/>
</g>
</svg>
